<?xml version="1.0" ?><!DOCTYPE svg  PUBLIC '-//W3C//DTD SVG 1.1//EN'  'http://www.w3.org/Graphics/SVG/1.1/DTD/svg11.dtd'><svg enable-background="new 0 0 512 512" height="512px" id="satellite" version="1.1" viewBox="0 0 512 512" width="512px" xml:space="preserve" xmlns="http://www.w3.org/2000/svg" xmlns:xlink="http://www.w3.org/1999/xlink"><path d="M297.43,243.501c41.468-17.644,70.544-58.758,70.544-106.667c0-63.993-51.877-115.87-115.869-115.87  c-63.993,0-115.87,51.877-115.87,115.87c0,39.485,19.756,74.351,49.916,95.271c-41.468,17.643-70.544,58.759-70.544,106.666  c0,63.994,51.877,115.87,115.87,115.87s115.869-51.876,115.869-115.87C347.346,299.287,327.591,264.421,297.43,243.501z" fill="#598889"/><circle cx="361.631" cy="424.885" fill="#466C6F" r="48.724"/><circle cx="420.099" cy="256.117" fill="#466C6F" r="44.534"/><circle cx="252.104" cy="136.835" fill="#466C6F" r="95.838"/><path d="M231.477,242.934c-35.509,0-66.505,19.312-83.064,48.005c-2.319-3.815-5.115-7.423-8.412-10.72  c-22.223-22.224-58.252-22.224-80.475,0c-22.224,22.223-22.224,58.252-0.001,80.475c21.734,21.734,56.667,22.197,78.982,1.42  c2.781,11.113,7.519,21.446,13.799,30.641l-75.059,75.059c-3.491,3.492-3.491,9.206,0,12.697c3.492,3.492,9.205,3.492,12.697,0  l73.877-73.877c2.289,2.281,4.696,4.443,7.205,6.486l-62.294,62.293c-3.491,3.492-3.492,9.206,0,12.697  c3.491,3.492,9.205,3.492,12.696,0l64.835-64.835c13.471,7.224,28.858,11.335,45.213,11.335c52.93,0,95.838-42.908,95.838-95.838  S284.406,242.934,231.477,242.934z" fill="#466C6F"/><circle cx="60.233" cy="195.517" fill="#66B2B2" r="9.885"/><circle cx="112.117" cy="404.197" fill="#66B2B2" r="9.884"/><circle cx="388.109" cy="63.064" fill="#66B2B2" r="9.884"/><circle cx="433.708" cy="187.917" fill="#66B2B2" r="9.885"/><circle cx="270.855" cy="432.196" fill="#66B2B2" r="9.885"/><circle cx="315.223" cy="462.583" fill="#66B2B2" r="21.005"/><path d="M420.231,243.91L286.46,109.482c-4.987-5.002-13.161-5.014-18.164-0.026l-1.119,1.116  c-4.528,4.515-4.953,11.632-1.297,16.653l-93.235,93.236c-9.823,9.822-12.007,24.502-6.563,36.49  c-0.309,0.268-0.62,0.531-0.913,0.825c-6.758,6.757-6.758,17.815,0,24.573l12.203,12.203h-37.55l-11.507-11.571  c-4.988-5.002-13.162-5.014-18.164-0.026l-1.12,1.117c-5.002,4.987-5.014,13.161-0.026,18.163l118.417,119.073  c4.988,5.002,13.162,5.014,18.164,0.026l1.12-1.116c5.002-4.988,5.014-13.162,0.026-18.164l-10.558-10.616v-38.083l11.49,11.489  c6.758,6.758,17.815,6.758,24.572,0h0.001c0.293-0.293,0.557-0.604,0.824-0.913c11.988,5.445,26.667,3.261,36.49-6.563  l92.907-92.907c5.009,3.646,12.106,3.233,16.625-1.271l1.119-1.116C425.207,257.086,425.219,248.912,420.231,243.91z   M153.745,308.553h37.627l10.451,10.451l-18.895,18.895L153.745,308.553z M222.175,377.361l-29.373-29.536l18.922-18.921  l10.451,10.451V377.361z M400.929,263.172c0.251,0.25,0.515,0.48,0.781,0.706C401.441,263.656,401.18,263.423,400.929,263.172z" fill="#FF7143"/><path d="M400.921,263.164L267.149,128.737c-0.473-0.475-0.887-0.985-1.27-1.511l-93.235,93.236  c-12.64,12.639-12.64,33.321,0,45.96l90.947,90.947c12.64,12.64,33.321,12.64,45.961,0l92.907-92.907  C401.924,264.071,401.403,263.648,400.921,263.164z" fill="#F4F4F4"/><path d="M362.847,157.319l9.899,9.9l23.222-23.221c5.76,2.049,12.436,0.786,17.046-3.825  c6.385-6.385,6.385-16.737,0-23.122c-6.385-6.385-16.737-6.385-23.122,0c-4.611,4.611-5.873,11.286-3.824,17.047L362.847,157.319z" fill="#FFD800"/><path d="M313.648,217.079c-20.231-19.87-52.736-19.767-72.83,0.328c-20.094,20.093-20.195,52.597-0.326,72.829  c20.231,19.87,52.736,19.767,72.83-0.328C333.415,269.814,333.518,237.311,313.648,217.079z" fill="#52C9D5"/><path d="M313.648,217.079l-73.156,73.156c20.231,19.87,52.736,19.767,72.83-0.328  C333.415,269.814,333.518,237.311,313.648,217.079z" fill="#49BAC0"/><path d="M302.258,228.47l-0.001,0.001L302.258,228.47c-13.946-13.582-36.251-13.487-50.058,0.319  c-13.806,13.806-13.899,36.11-0.317,50.056l0.001-0.001c13.945,13.583,36.25,13.487,50.057-0.318  C315.746,264.72,315.84,242.415,302.258,228.47z" fill="#FFFFFF"/><path d="M302.258,228.47l-50.374,50.374c13.945,13.583,36.25,13.487,50.057-0.318  C315.746,264.72,315.84,242.415,302.258,228.47z" fill="#F4F4F4"/><path d="M286.46,109.482L420.231,243.91c0.311,0.312,0.602,0.636,0.874,0.971l23.023-6.279L291.358,85.831  l-6.154,22.563C285.64,108.729,286.063,109.084,286.46,109.482z" fill="#52C9D5"/><path d="M267.149,128.737l133.771,134.427c4.87,4.884,12.769,4.997,17.795,0.357L266.844,110.94  C262.19,115.954,262.28,123.853,267.149,128.737z" fill="#E5603C"/><path d="M109.005,302.236l118.417,119.072c4.87,4.884,12.769,4.997,17.796,0.357L108.699,284.438  C104.045,289.453,104.135,297.352,109.005,302.236z" fill="#E5603C"/><path d="M147.907,208.408l-64.346-64.345c-16.202-16.202-16.202-42.715,0-58.917l28.497-28.496  c16.202-16.203,42.715-16.203,58.917,0l64.346,64.345c16.202,16.202,16.202,42.715,0,58.917l-28.496,28.496  C190.622,224.61,164.109,224.61,147.907,208.408z" fill="#FF7143"/><path d="M154.36,195.852L96.118,137.61c-11.702-11.702-11.702-30.674,0-42.376l26.029-26.029  c11.701-11.701,30.674-11.701,42.375,0l58.242,58.242c11.702,11.702,11.702,30.674,0,42.375l-26.029,26.029  C185.034,207.554,166.062,207.554,154.36,195.852z" fill="#FFFFFF"/><path d="M154.36,195.852c2.75,2.75,5.905,4.846,9.27,6.303l65.438-65.438c-1.458-3.365-3.553-6.52-6.303-9.27  l-2.114-2.113l-68.404,68.405L154.36,195.852z" fill="#F4F4F4"/><rect fill="#F4F4F4" height="96.739" transform="matrix(-0.7071 -0.7071 0.7071 -0.7071 178.664 339.4588)" width="14" x="152.639" y="84.356"/><path d="M164.522,69.205c-1.941-1.941-4.086-3.554-6.361-4.851l-66.894,66.894c1.297,2.275,2.909,4.42,4.851,6.362  l4.293,4.293l68.405-68.405L164.522,69.205z" fill="#F4F4F4"/><path d="M385.869,444.876l-64.345-64.345c-16.203-16.203-16.203-42.716,0-58.918l28.496-28.496  c16.202-16.203,42.715-16.203,58.917,0l64.346,64.345c16.202,16.202,16.202,42.716,0,58.918l-28.496,28.496  C428.585,461.078,402.071,461.078,385.869,444.876z" fill="#FF7143"/><path d="M392.322,432.32l-58.242-58.242c-11.702-11.702-11.702-30.674,0-42.376l26.029-26.029  c11.701-11.701,30.674-11.701,42.376,0l58.241,58.242c11.702,11.701,11.702,30.674,0,42.376l-26.029,26.029  C422.996,444.021,404.023,444.021,392.322,432.32z" fill="#FFFFFF"/><path d="M392.322,432.32c2.75,2.75,5.905,4.846,9.271,6.303l65.438-65.438c-1.458-3.365-3.553-6.521-6.304-9.271  l-2.113-2.113l-68.404,68.405L392.322,432.32z" fill="#F4F4F4"/><rect fill="#F4F4F4" height="96.738" transform="matrix(-0.7071 -0.7071 0.7071 -0.7071 417.6875 911.3986)" width="14.001" x="390.6" y="320.824"/><path d="M402.485,305.673c-1.942-1.941-4.087-3.554-6.362-4.851l-66.895,66.894c1.298,2.275,2.91,4.421,4.852,6.362  l4.294,4.293l68.404-68.405L402.485,305.673z" fill="#F4F4F4"/><path d="M116.347,461.34L116.347,461.34c-3.983-3.983-3.222-11.262,1.692-16.176l50.175-50.175  c4.913-4.914,12.192-5.676,16.176-1.692l0,0c3.982,3.982,3.221,11.262-1.693,16.176l-50.174,50.175  C127.608,464.561,120.329,465.322,116.347,461.34z" fill="#5AA096"/><path d="M28.406,488.481L28.406,488.481c-3.983-3.983-3.221-11.262,1.692-16.175l50.175-50.176  c4.914-4.913,12.192-5.675,16.176-1.692l0,0c3.982,3.983,3.221,11.263-1.692,16.176l-50.175,50.175  C39.668,491.703,32.389,492.465,28.406,488.481z" fill="#5AA096"/><polygon fill="#FFD326" points="469.343,68.606 474.535,79.128 486.146,80.815 477.744,89.004 479.728,100.568 469.343,95.108   458.958,100.568 460.941,89.004 452.54,80.815 464.15,79.128 "/><polygon fill="#FFD326" points="123.343,216.607 128.535,227.128 140.146,228.815 131.744,237.004 133.728,248.568 123.343,243.108   112.958,248.568 114.941,237.004 106.54,228.815 118.15,227.128 "/></svg>